<?xml version="1.0" encoding="UTF-8" standalone="no"?>
<svg
   xmlns:ns="&amp;#38;#38;ns_sfw;"
   xmlns:dc="http://purl.org/dc/elements/1.1/"
   xmlns:cc="http://creativecommons.org/ns#"
   xmlns:rdf="http://www.w3.org/1999/02/22-rdf-syntax-ns#"
   xmlns:svg="http://www.w3.org/2000/svg"
   xmlns="http://www.w3.org/2000/svg"
   xmlns:sodipodi="http://sodipodi.sourceforge.net/DTD/sodipodi-0.dtd"
   xmlns:inkscape="http://www.inkscape.org/namespaces/inkscape"
   version="1.1"
   id="Layer_1"
   x="0px"
   y="0px"
   viewBox="0 0 52.8 49"
   style="enable-background:new 0 0 52.8 49;"
   xml:space="preserve"
   sodipodi:docname="pets-i.svg"
   inkscape:version="1.0.2-2 (e86c870879, 2021-01-15)"><defs
   id="defs19" /><sodipodi:namedview
   pagecolor="#ffffff"
   bordercolor="#666666"
   borderopacity="1"
   objecttolerance="10"
   gridtolerance="10"
   guidetolerance="10"
   inkscape:pageopacity="0"
   inkscape:pageshadow="2"
   inkscape:window-width="1920"
   inkscape:window-height="1017"
   id="namedview17"
   showgrid="false"
   inkscape:snap-nodes="false"
   inkscape:zoom="6.133069"
   inkscape:cx="4.3707125"
   inkscape:cy="42.926554"
   inkscape:window-x="-8"
   inkscape:window-y="-8"
   inkscape:window-maximized="1"
   inkscape:current-layer="Layer_1"
   inkscape:document-rotation="0" />
<style
   type="text/css"
   id="style2">
	.st0{opacity:0.7;}
	.st1{fill:#FFFFFF;}
</style>
<metadata
   id="metadata4">
	<ns:sfw>
		<ns:slices />
		<ns:sliceSourceBounds
   bottomLeftOrigin="true"
   height="49"
   width="52.8"
   x="8.3"
   y="11.1" />
	</ns:sfw>
<rdf:RDF><cc:Work
     rdf:about=""><dc:format>image/svg+xml</dc:format><dc:type
       rdf:resource="http://purl.org/dc/dcmitype/StillImage" /></cc:Work></rdf:RDF></metadata>

<path
   style="opacity:1;fill:#ffffff;fill-opacity:1;stroke-width:0.101011"
   d="M 14.049718,46.28981 C 12.144803,46.015102 10.730524,45.148031 9.9280824,43.762904 9.787285,43.519868 9.5661396,42.98011 9.4366474,42.563441 9.2312228,41.902444 9.2025876,41.612696 9.2120433,40.290701 c 0.01999,-2.794125 0.7048459,-5.423391 2.1574937,-8.282873 2.890507,-5.689853 7.77427,-9.704493 12.895029,-10.600206 1.161282,-0.203128 3.358654,-0.203128 4.519935,0 5.120759,0.895713 10.004523,4.910353 12.895029,10.600206 1.452649,2.859482 2.13751,5.488748 2.157494,8.282873 0.0086,1.206689 -0.02697,1.638549 -0.174892,2.121225 -0.462348,1.508717 -1.371792,2.624373 -2.634303,3.231616 -1.171164,0.563307 -1.897005,0.697061 -3.796166,0.699529 -1.877314,0.0025 -2.310117,-0.04986 -6.414177,-0.774938 -4.075153,-0.719982 -4.644895,-0.716441 -9.141463,0.05682 -4.578802,0.787398 -5.948542,0.906813 -7.626305,0.664862 z M 6.0353944,29.576633 C 3.6885769,28.945229 1.7469538,26.762283 0.96538464,23.876471 0.62656814,22.625447 0.62092262,20.698683 0.95295016,19.634023 1.291512,18.548427 1.7454311,17.748742 2.3856026,17.110069 c 1.0086269,-1.006265 2.2734355,-1.491267 3.5978945,-1.379646 2.1661765,0.182558 4.1057259,1.639894 5.2669009,3.957435 1.183426,2.36195 1.269283,5.248345 0.218056,7.330813 -1.029489,2.039407 -3.3317094,3.123324 -5.433064,2.557962 z m 38.7049326,0.01475 c -1.677453,-0.406819 -3.068746,-1.832529 -3.610669,-3.699986 -0.549275,-1.892789 -0.355617,-3.952166 0.558445,-5.938541 1.922984,-4.178897 6.259404,-5.552385 8.975358,-2.842793 0.64017,0.638673 1.09409,1.438358 1.432651,2.523954 0.332033,1.06466 0.326388,2.991424 -0.01243,4.242448 -1.069803,3.950066 -4.289273,6.455599 -7.343355,5.714918 z M 18.062494,20.529261 c -0.916809,-0.132784 -1.636303,-0.432692 -2.466213,-1.028 -2.579735,-1.850482 -4.039952,-5.942324 -3.509629,-9.8347304 0.351576,-2.5804395 1.292202,-4.5812713 2.845666,-6.0530967 1.885515,-1.786424 4.164118,-2.1324036 6.382853,-0.9691626 3.213754,1.684911 4.994946,6.6860898 4.000377,11.2321437 -0.64278,2.938067 -2.140845,5.124765 -4.18605,6.110297 -0.504972,0.243333 -1.145404,0.470994 -1.423184,0.505914 -0.277778,0.03491 -0.618689,0.07809 -0.757579,0.09595 -0.13889,0.01785 -0.537698,-0.0088 -0.886241,-0.05932 z m 15.431775,-0.0053 c -0.431271,-0.05884 -0.97162,-0.242299 -1.5747,-0.534646 -4.074834,-1.975297 -5.732062,-8.733377 -3.375027,-13.7631588 1.011437,-2.1583484 2.616079,-3.6203653 4.509759,-4.1089174 2.744179,-0.7079728 5.686398,1.123327 7.068024,4.3992868 1.348465,3.1973362 1.248993,6.9674184 -0.264872,10.0388294 -0.991915,2.012446 -2.548804,3.426228 -4.216855,3.829238 -0.844687,0.204082 -1.405208,0.240478 -2.146329,0.139368 z"
   id="path37" /><rect
   style="fill:#0000ff;fill-rule:evenodd"
   id="rect15"
   width="0.97830302"
   height="0.48915151"
   x="-80.709999"
   y="51.360909" /></svg>
